<svg width="28" height="28" viewBox="0 0 28 28" fill="current" xmlns="http://www.w3.org/2000/svg">
    <path
        d="M14.0003 18.375C15.3809 18.375 16.5524 17.8937 17.5149 16.9312C18.4774 15.9687 18.9587 14.7972 18.9587 13.4166C18.9587 12.0361 18.4774 10.8645 17.5149 9.90204C16.5524 8.93954 15.3809 8.45829 14.0003 8.45829C12.6198 8.45829 11.4482 8.93954 10.4857 9.90204C9.52324 10.8645 9.04199 12.0361 9.04199 13.4166C9.04199 14.7972 9.52324 15.9687 10.4857 16.9312C11.4482 17.8937 12.6198 18.375 14.0003 18.375ZM14.0003 16.6833C13.0864 16.6833 12.3135 16.3673 11.6816 15.7354C11.0496 15.1034 10.7337 14.3305 10.7337 13.4166C10.7337 12.5027 11.0496 11.7298 11.6816 11.0979C12.3135 10.4659 13.0864 10.15 14.0003 10.15C14.9142 10.15 15.6871 10.4659 16.3191 11.0979C16.951 11.7298 17.267 12.5027 17.267 13.4166C17.267 14.3305 16.951 15.1034 16.3191 15.7354C15.6871 16.3673 14.9142 16.6833 14.0003 16.6833ZM14.0003 22.1666C11.1614 22.1666 8.59477 21.3597 6.30033 19.7458C4.00588 18.1319 2.29477 16.0222 1.16699 13.4166C2.29477 10.8111 4.00588 8.70135 6.30033 7.08746C8.59477 5.47357 11.1614 4.66663 14.0003 4.66663C16.8392 4.66663 19.4059 5.47357 21.7003 7.08746C23.9948 8.70135 25.7059 10.8111 26.8337 13.4166C25.7059 16.0222 23.9948 18.1319 21.7003 19.7458C19.4059 21.3597 16.8392 22.1666 14.0003 22.1666ZM14.0003 20.4166C16.3531 20.4166 18.5163 19.7798 20.4899 18.5062C22.4635 17.2326 23.9656 15.5361 24.9962 13.4166C23.9656 11.2972 22.4635 9.60065 20.4899 8.32704C18.5163 7.05343 16.3531 6.41663 14.0003 6.41663C11.6475 6.41663 9.48435 7.05343 7.51074 8.32704C5.53713 9.60065 4.02533 11.2972 2.97533 13.4166C4.02533 15.5361 5.53713 17.2326 7.51074 18.5062C9.48435 19.7798 11.6475 20.4166 14.0003 20.4166Z"
        fill="current" />
</svg>