<svg width="48" height="48" viewBox="0 0 48 48" fill="#FFFFFF" xmlns="http://www.w3.org/2000/svg">
<path d="M15.9958 20.25C15.9958 19.5596 16.5555 19 17.2458 19H30.7503C31.4406 19 32.0003 19.5596 32.0003 20.25C32.0003 20.9404 31.4406 21.5 30.7503 21.5H17.2458C16.5555 21.5 15.9958 20.9404 15.9958 20.25ZM17.2502 26.475C16.5599 26.475 16.0002 27.0346 16.0002 27.725C16.0002 28.4153 16.5599 28.975 17.2502 28.975H26.7502C27.4406 28.975 28.0002 28.4153 28.0002 27.725C28.0002 27.0346 27.4406 26.475 26.7502 26.475H17.2502ZM16.5358 5.45102C33.8238 -1.4676 50.882 16.8868 41.5929 33.6071C37.3737 41.2017 26.8909 47.3175 14.6846 41.5331L6.20039 43.9572C4.88396 44.3333 3.66741 43.1217 4.03682 41.8041C4.54321 39.9981 5.74306 35.7403 6.44459 33.4328C1.18328 24.0445 4.73099 10.1753 16.5358 5.45102ZM39.4076 32.393C47.4934 17.8385 32.6847 1.68105 17.4647 7.77205C6.98817 11.9647 3.9394 24.4652 8.87032 32.6314L9.16123 33.1132L8.99336 33.6503C8.46122 35.3532 7.45649 38.8841 6.80827 41.1834L14.922 38.8652L15.3554 39.0801C26.3618 44.5362 35.6773 39.1074 39.4076 32.393Z" fill="#FFFFFF"/>
</svg>
