<svg width="53" height="28" viewBox="0 0 53 28" fill="#FFFFFF" xmlns="http://www.w3.org/2000/svg">
<path fill-rule="evenodd" clip-rule="evenodd" d="M32.4349 27.1499C32.2651 27.0602 31.3952 26.5774 30.8593 25.8669C30.3949 25.2508 30.1682 24.4847 30.6294 23.6498C31.448 22.1666 31.5609 21.8929 31.5216 20.3585C31.5016 19.576 31.2979 18.9346 31.0849 18.1745C30.8531 17.3474 30.6063 16.3921 30.5216 15.0287C30.3607 12.4424 29.6395 10.9669 29.0049 9.08977C28.7396 8.30543 28.5987 7.66738 28.6145 7.19305C28.6287 6.75756 28.767 6.42874 29.008 6.19581C29.4531 5.76494 29.9957 5.69063 30.5343 5.8381C30.9821 5.96093 31.428 6.25087 31.7741 6.58585C32.503 7.29048 33.4968 9.27074 33.8911 10.0651C34.019 10.322 34.2246 10.5191 34.4779 10.5969C34.7324 10.6747 35.0262 10.6242 35.3243 10.4274C35.9965 9.98349 36.4228 8.86381 36.7035 7.84498C37.1055 6.3876 37.7419 3.92597 38.1305 2.54292C38.3434 1.7863 38.5818 1.21299 38.8601 0.815649C39.2074 0.319322 39.6241 0.0625042 40.1234 0.0105176C40.8743 -0.068032 41.379 0.298534 41.7018 0.938095C41.8254 1.18375 41.8793 1.54185 41.8558 1.96807C41.8123 2.75664 41.5189 3.82742 41.2624 4.67149C40.9844 5.58674 40.7365 6.72956 40.5412 7.75382C41.7203 5.71191 43.3224 2.97961 43.838 2.30311C44.3739 1.60079 44.9034 1.32934 45.3527 1.25155C45.8467 1.16569 46.271 1.31123 46.5748 1.48643C47.1096 1.79523 47.7592 2.90034 46.8205 4.39044C45.6695 6.21825 44.362 8.43187 43.459 10.1476C44.3919 9.19346 45.9529 7.61747 46.6518 6.76887C47.1096 6.21248 47.9112 5.29533 48.6483 4.82751C49.0572 4.56799 49.4607 4.44439 49.8015 4.4852C51.0948 4.63922 51.4787 6.00073 51.0205 6.79394C50.5315 7.64104 49.9601 8.16043 48.6194 9.50386C47.1246 11.0024 46.0539 12.2396 45.3873 13.1044C46.5001 12.3736 49.2108 10.3937 49.907 9.97011C50.329 9.71366 50.6301 9.50536 50.8847 9.37521C51.2531 9.18692 51.5585 9.13225 51.9047 9.21888C52.6028 9.3933 53.2331 10.1865 52.8476 11.1715C52.7545 11.4106 52.3979 11.7956 51.8696 12.2099C50.85 13.0093 49.1755 14.052 48.3554 14.6234C47.2399 15.4011 46.2761 16.4281 45.2019 18.2886C43.795 20.726 41.4792 22.93 40.1004 23.6769C38.8432 24.3581 37.7428 24.7697 36.6038 26.8082C36.0728 27.7585 35.2527 27.9868 34.4556 27.9121C33.5095 27.8235 32.6051 27.261 32.4349 27.1501L32.4349 27.1499ZM35.859 11.2375C36.6869 10.6908 37.2934 9.35778 37.6391 8.10287C38.0404 6.64697 38.6764 4.18732 39.0646 2.80584C39.2406 2.18013 39.425 1.70115 39.6549 1.37231C39.8158 1.14244 39.9929 0.999978 40.2243 0.975719C40.5235 0.94453 40.7068 1.12011 40.835 1.37501C40.929 1.56137 40.9036 1.86633 40.8581 2.21865C40.7707 2.89902 40.5374 3.72068 40.3341 4.38948C39.6456 6.65584 39.1343 10.2783 39.1343 10.2783C39.1019 10.5094 39.2378 10.7304 39.4585 10.8055C39.6791 10.8806 39.9221 10.7881 40.0368 10.5852C40.0368 10.5852 43.7725 3.98981 44.6096 2.89162C44.94 2.45845 45.2411 2.25592 45.5184 2.20778C45.7502 2.16774 45.9473 2.24475 46.0898 2.32714C46.171 2.37412 46.2376 2.47886 46.2811 2.61284C46.3801 2.92088 46.3262 3.35482 45.9997 3.87347C44.3474 6.49676 42.3841 9.90289 41.6972 11.5697C41.6044 11.7946 41.6926 12.0533 41.9032 12.1746C41.9032 12.1746 42.4604 12.6402 43.5454 11.4577C44.0991 10.8539 46.4844 8.49936 47.4008 7.3858C47.7547 6.95609 48.3299 6.2819 48.9056 5.8333C49.0743 5.70239 49.241 5.59111 49.4019 5.51833C49.504 5.47252 49.5987 5.43786 49.6865 5.44826C50.1782 5.50717 50.3545 6.00734 50.1805 6.30883C49.7254 7.09702 49.1802 7.56828 47.9326 8.81896C46.1906 10.5651 45.0104 11.9678 44.359 12.8573C43.9181 13.4588 43.999 13.8565 44.1172 14.0471C44.2127 14.2007 44.3655 14.3105 44.5677 14.3559C44.806 14.4094 45.1533 14.3505 45.4109 14.223C45.9792 13.9423 49.5875 11.3002 50.4112 10.7997C50.807 10.559 51.0881 10.3615 51.3268 10.2394C51.4523 10.1751 51.5513 10.1308 51.6695 10.1601C51.899 10.2175 52.0711 10.4943 51.944 10.8185C51.9298 10.8555 51.889 10.8944 51.8416 10.9448C51.7065 11.0908 51.5078 11.2606 51.271 11.4461C50.2645 12.2359 48.6103 13.2632 47.8006 13.8276C46.5876 14.6728 45.5296 15.7805 44.3617 17.8036C43.0544 20.0681 40.919 22.13 39.6384 22.8238C38.2364 23.5835 37.0266 24.0621 35.7567 26.3351C35.3732 27.0212 34.7144 27.0193 34.163 26.8772C33.5019 26.7074 32.9559 26.332 32.9559 26.332C32.9374 26.3193 32.9182 26.3077 32.8978 26.2977C32.8978 26.2977 32.1019 25.9034 31.6341 25.2831C31.3896 24.9585 31.2359 24.5588 31.4789 24.1191C32.4196 22.4149 32.537 22.0968 32.4915 20.3338C32.4738 19.6322 32.331 19.0307 32.1511 18.3823C31.9043 17.4937 31.5859 16.5079 31.49 14.9685C31.3225 12.2747 30.5852 10.7346 29.924 8.7793C29.7388 8.23139 29.6156 7.77092 29.5887 7.40236C29.5721 7.17827 29.5713 7.00114 29.6826 6.89333C29.8551 6.7266 30.0692 6.71697 30.2779 6.77397C30.5771 6.85598 30.8685 7.05967 31.0996 7.28339C31.7699 7.93141 32.6594 9.7665 33.0221 10.497C33.2735 11.003 33.6948 11.3722 34.1938 11.5247C34.6921 11.6772 35.2758 11.6221 35.8592 11.2375L35.859 11.2375Z" fill="#FFFFFF"/>
<path fill-rule="evenodd" clip-rule="evenodd" d="M12.4236 7.75406C12.2284 6.7298 11.9804 5.58706 11.7024 4.67173C11.446 3.82771 11.1526 2.75688 11.1091 1.96831C11.0856 1.54207 11.1395 1.18398 11.2631 0.938337C11.5857 0.298776 12.0905 -0.0677817 12.8414 0.01076C13.3408 0.0627407 13.7574 0.319565 14.1047 0.815891C14.3831 1.21325 14.6214 1.78659 14.8344 2.54316C15.2229 3.92621 15.8593 6.38784 16.2614 7.84522C16.5421 8.86405 16.9683 9.98372 17.6406 10.4277C17.9386 10.6244 18.2324 10.6749 18.4869 10.5971C18.7403 10.5193 18.9459 10.3222 19.0737 10.0654C19.468 9.27102 20.4618 7.29078 21.1907 6.5861C21.5369 6.25111 21.9828 5.96117 22.4306 5.83834C22.9692 5.69087 23.5118 5.76518 23.9568 6.19605C24.1979 6.429 24.3361 6.75783 24.3504 7.1933C24.3661 7.66767 24.2252 8.30567 23.9599 9.09001C23.3254 10.9671 22.6042 12.4426 22.4432 15.0289C22.3585 16.3924 22.1117 17.3476 21.8799 18.1747C21.667 18.9348 21.4633 19.5763 21.4433 20.3587C21.404 21.8931 21.5168 22.1669 22.3354 23.6501C22.7967 24.4849 22.5699 25.2511 22.1055 25.8672C21.5696 26.5776 20.6997 27.0604 20.53 27.1502C20.3598 27.2611 19.4553 27.8236 18.5093 27.9122C17.7122 27.9869 16.8921 27.7585 16.3611 26.8083C15.2221 24.7698 14.1216 24.3583 12.8645 23.6771C11.4856 22.9301 9.17001 20.726 7.763 18.2887C6.68877 16.4282 5.72494 15.4013 4.6095 14.6235C3.78936 14.0521 2.11476 13.0094 1.09523 12.21C0.566951 11.7957 0.210398 11.4107 0.117218 11.1716C-0.268216 10.1866 0.362109 9.39346 1.06019 9.21899C1.40635 9.13235 1.71169 9.18703 2.08021 9.37531C2.33472 9.50546 2.63583 9.71377 3.05784 9.97021C3.754 10.3938 6.46467 12.3737 7.57754 13.1045C6.91103 12.2397 5.84022 11.0025 4.34548 9.50397C3.00471 8.16054 2.43339 7.64117 1.94438 6.79404C1.48618 6.00085 1.87006 4.63937 3.16341 4.4853C3.50417 4.44449 3.9077 4.56809 4.3166 4.82761C5.05358 5.29544 5.8552 6.21264 6.31306 6.76898C7.01191 7.61762 8.57291 9.19363 9.50589 10.1477C8.60296 8.43197 7.29533 6.21836 6.14441 4.39055C5.20567 2.90044 5.85524 1.79536 6.39007 1.48653C6.69386 1.31134 7.11818 1.16579 7.61216 1.25166C8.0615 1.32943 8.59094 1.6009 9.1269 2.30322C9.64248 2.97974 11.2446 5.71201 12.4236 7.75392L12.4236 7.75406ZM17.1057 11.2376C17.6891 11.6222 18.2728 11.6773 18.7711 11.5248C19.2701 11.3723 19.6914 11.0031 19.9428 10.4971C20.3055 9.76668 21.195 7.9316 21.8654 7.28349C22.0964 7.05978 22.3879 6.85609 22.6871 6.77407C22.8957 6.71708 23.1098 6.72671 23.2823 6.89343C23.3936 7.00125 23.3928 7.17836 23.3763 7.40246C23.3493 7.77095 23.2261 8.23147 23.0409 8.77941C22.3798 10.7347 21.6424 12.2748 21.4749 14.9686C21.379 16.508 21.0606 17.4937 20.8138 18.3824C20.634 19.0308 20.4911 19.6323 20.4734 20.3339C20.428 22.097 20.5454 22.415 21.486 24.1192C21.729 24.5589 21.5754 24.9586 21.3309 25.2832C20.863 25.9035 20.0672 26.2978 20.0672 26.2978C20.0468 26.3078 20.0275 26.3194 20.009 26.3321C20.009 26.3321 19.463 26.7075 18.8019 26.8773C18.2505 27.0194 17.5918 27.0213 17.2082 26.3352C15.9383 24.0622 14.7286 23.5836 13.3266 22.824C12.0459 22.1301 9.9105 20.0682 8.60324 17.8037C7.43537 15.7807 6.3773 14.6729 5.16438 13.8277C4.35463 13.2633 2.70049 12.236 1.69397 11.4462C1.45718 11.2607 1.25849 11.0908 1.12334 10.9449C1.07597 10.8945 1.03516 10.8556 1.02091 10.8186C0.893841 10.4944 1.06596 10.2176 1.29545 10.1602C1.41366 10.1309 1.51261 10.1752 1.63814 10.2395C1.87687 10.3616 2.15795 10.5591 2.55378 10.7998C3.3774 11.3003 6.98565 13.9425 7.55402 14.2231C7.81161 14.3506 8.15892 14.4095 8.39727 14.356C8.59942 14.3106 8.75228 14.2008 8.84777 14.0472C8.96597 13.8566 9.04683 13.4588 8.60596 12.8574C7.95446 11.968 6.77431 10.5653 5.03235 8.81906C3.78483 7.56838 3.23954 7.09711 2.78443 6.30894C2.61039 6.00745 2.78674 5.50728 3.27844 5.44836C3.36623 5.43796 3.46096 5.47262 3.56299 5.51844C3.72394 5.59121 3.89066 5.70249 4.05931 5.8334C4.63495 6.28198 5.21024 6.95623 5.56411 7.3859C6.48052 8.49946 8.86585 10.854 9.41953 11.4578C10.5046 12.6403 11.0617 12.1747 11.0617 12.1747C11.2723 12.0534 11.3605 11.7947 11.2677 11.5698C10.5808 9.90299 8.61743 6.49686 6.96528 3.87358C6.63876 3.35492 6.58485 2.92097 6.68381 2.61295C6.72732 2.47895 6.79393 2.37422 6.87517 2.32725C7.01764 2.24485 7.21478 2.16784 7.44658 2.20789C7.72382 2.25602 8.02492 2.45855 8.35529 2.89173C9.19238 3.98991 12.9281 10.5853 12.9281 10.5853C13.0429 10.7882 13.2858 10.8807 13.5065 10.8056C13.7271 10.7305 13.863 10.5095 13.8307 10.2784C13.8307 10.2784 13.3193 6.65594 12.6309 4.38959C12.4276 3.72076 12.1942 2.89909 12.1068 2.21875C12.0614 1.86643 12.036 1.56148 12.1299 1.37512C12.2581 1.12022 12.4414 0.944634 12.7406 0.975822C12.972 1.00008 13.1491 1.14255 13.3101 1.37241C13.5399 1.70124 13.7244 2.18024 13.9003 2.80594C14.2885 4.18752 14.9246 6.64717 15.3258 8.10297C15.6716 9.35779 16.278 10.6909 17.1059 11.2376L17.1057 11.2376Z" fill="#FFFFFF"/>
</svg>
