<svg width="22" height="20" viewBox="0 0 22 20" fill="current" xmlns="http://www.w3.org/2000/svg">
<path fill-rule="evenodd" clip-rule="evenodd" d="M16.4473 3.29923C16.7692 2.97735 17.252 2.97735 17.5739 3.29923C17.8958 3.62111 17.8958 4.1844 17.5739 4.50629L15.4012 6.67899C15.0793 6.19617 14.7574 6.03523 14.1137 5.71334L16.4473 3.29923ZM17.4129 5.87428C17.7348 5.5524 18.2176 5.5524 18.5395 5.87428C18.8614 6.19617 18.8614 6.67899 18.5395 7.00087L16.6887 8.93216H16.0449C16.1254 8.52981 16.0449 7.96652 15.884 7.48369L17.4129 5.87428ZM13.5504 7.32275L8.96354 11.7486C8.56119 12.0705 8.31978 12.6338 8.31978 13.1971V17.3816C8.31978 18.5082 9.20495 19.3933 10.3315 19.3933H19.1833C19.5856 19.3933 19.988 18.991 19.988 18.5886C19.988 18.1863 19.5856 17.7839 19.1833 17.7839H15.5621V16.9792H20.3904C20.7927 16.9792 21.1951 16.5769 21.1951 16.1745C21.1951 15.7722 20.7927 15.3698 20.3904 15.3698H15.5621V14.5651H21.1951C21.5974 14.5651 21.9998 14.1627 21.9998 13.7604C21.9998 13.358 21.5974 12.9557 21.1951 12.9557H15.5621V12.151H20.0685C20.4708 12.151 20.8732 11.7486 20.8732 11.3463C20.8732 10.9439 20.4708 10.5416 20.0685 10.5416H13.6308L14.3551 9.01263C14.5965 8.44934 14.3551 7.72511 13.7918 7.40322L13.5504 7.32275ZM10.7339 17.7839C10.3315 17.7839 9.92919 17.3816 9.92919 16.9792V13.2776C9.92919 13.1166 10.0097 12.8752 10.1706 12.7143L12.3433 10.7025C12.3433 11.5025 12.9918 12.151 13.7918 12.151H13.9527V17.7839H10.7339ZM6.54943 10.622C6.14708 10.2197 5.90566 9.73687 5.90566 9.17358V2.73594L6.14708 2.65547C6.71037 2.49452 7.4346 2.81641 7.83696 3.29923L8.40025 4.90864L12.8261 0.24135C13.148 -0.0805315 13.6308 -0.0805315 13.9527 0.24135C14.2746 0.563232 14.2746 1.04606 13.9527 1.36794L10.8948 4.58676L11.4581 5.15005L15.3207 1.04606C15.6426 0.724173 16.1254 0.724173 16.4473 1.04606C16.7692 1.36794 16.7692 1.85076 16.4473 2.17264L13.3894 5.39146L12.8759 5.84795C11.9508 6.67024 10.5403 6.61069 9.68778 5.71334L9.53259 5.87962C8.99523 6.45535 8.09376 6.48893 7.51507 5.95476V8.93216C7.51507 9.0931 7.59554 9.33452 7.75648 9.49546L8.31978 10.0588L7.83696 10.5416C7.59555 10.783 7.43461 11.0244 7.27367 11.2658L7.27366 11.2658L6.54943 10.622ZM1.44048 18.9452C1.88903 19.1643 2.40017 19.2738 2.97389 19.2738C3.51632 19.2738 3.99617 19.1591 4.41342 18.9296C4.83067 18.7001 5.15405 18.4132 5.38354 18.069H5.46177V19.0234H7.15165V14.0477C7.15165 13.015 6.83871 12.217 6.21283 11.6537C5.58695 11.08 4.69507 10.7931 3.53719 10.7931C2.84872 10.7931 2.22283 10.9287 1.65954 11.1999C1.09625 11.4711 0.637268 11.8519 0.282601 12.3422L1.48742 13.2653C1.70648 12.9524 1.99334 12.7073 2.34801 12.5299C2.71311 12.3526 3.09907 12.2639 3.50589 12.2639C4.07962 12.2639 4.54903 12.4204 4.91413 12.7333C5.27922 13.0358 5.46177 13.4322 5.46177 13.9225V14.3293C5.24271 14.225 4.94542 14.1311 4.56989 14.0477C4.19436 13.9538 3.77189 13.9069 3.30248 13.9069C2.35323 13.9069 1.56566 14.1468 0.939777 14.6266C0.324327 15.1065 0.0166016 15.7584 0.0166016 16.5825C0.0166016 17.1041 0.141778 17.5735 0.392131 17.9907C0.642483 18.3976 0.991934 18.7157 1.44048 18.9452ZM4.39777 17.5526C4.06397 17.7508 3.68844 17.8499 3.27119 17.8499C2.82264 17.8499 2.45754 17.7352 2.17589 17.5057C1.89425 17.2658 1.75342 16.9633 1.75342 16.5982C1.75342 16.1913 1.90468 15.8627 2.20719 15.6124C2.5097 15.3516 2.98432 15.2212 3.63107 15.2212C3.9753 15.2212 4.30389 15.2629 4.61683 15.3464C4.9402 15.4298 5.22185 15.5394 5.46177 15.675C5.46177 16.0609 5.36789 16.4208 5.18013 16.7546C4.99236 17.0884 4.73158 17.3544 4.39777 17.5526Z" fill="current"/>
</svg>
