<svg width="38" height="38" viewBox="0 0 38 38" fill="#FFFFFF" xmlns="http://www.w3.org/2000/svg">
<path d="M19 4.73825V16.4392C19 17.0458 18.5083 17.5376 17.9018 17.5376C17.2953 17.5376 16.8036 17.0458 16.8036 16.4392V6.93938C16.8036 6.35325 16.3285 5.82555 15.704 5.82193C15.1437 5.81849 14.6071 6.3531 14.6071 6.98664V20.1003C14.6071 20.532 14.3542 20.9237 13.9608 21.1014C13.5673 21.279 13.1063 21.2096 12.7825 20.9241C12.6831 20.8364 12.5934 20.7559 12.5102 20.6813C12.1601 20.3674 11.9274 20.1588 11.5895 19.9638C11.1999 19.7389 10.628 19.5175 9.57263 19.3553C8.60156 19.2061 7.60259 19.337 6.89491 19.7205C6.38214 19.9984 6.00796 20.4077 5.87471 21.0302L9.01371 23.2277C9.07582 23.2712 9.13327 23.321 9.18512 23.3763L12.8969 27.3361C14.1504 28.6733 15.2002 30.1878 16.0125 31.8309L16.5646 32.9478C16.9966 33.8217 17.887 34.3748 18.8617 34.3748H24.5241C25.3457 34.3748 26.0687 33.9902 26.4645 33.3577C27.1379 32.2817 28.0261 30.7252 28.7431 28.998C29.4655 27.2581 29.9821 25.4202 29.9821 23.7615V10.6107C29.9821 9.98974 29.5125 9.48308 28.8839 9.48308C28.2532 9.48308 27.7857 9.98504 27.7857 10.6107V17.1715C27.7857 17.7781 27.294 18.2698 26.6875 18.2698C26.081 18.2698 25.5893 17.7781 25.5893 17.1715V6.98664C25.5893 6.33441 25.1035 5.82195 24.4956 5.82195C23.8788 5.82195 23.3929 6.33356 23.3929 6.98665C23.3929 10.4628 23.393 12.963 23.3933 16.4391C23.3934 17.0457 22.9018 17.5375 22.2952 17.5376C21.6887 17.5376 21.197 17.0459 21.1969 16.4393C21.1966 12.9631 21.1964 10.4628 21.1964 6.98665V4.75567C21.1964 4.13051 20.7273 3.62576 20.095 3.62527C19.4504 3.62477 19 4.11107 19 4.73825ZM15.7175 3.62529C16.1512 3.62785 16.5549 3.71067 16.9203 3.85647L15.7175 3.62529ZM16.9203 3.85647C17.2848 2.50338 18.4757 1.42733 20.0967 1.42859C21.7073 1.42984 22.8973 2.51508 23.2698 3.85659C23.64 3.70839 24.051 3.62527 24.4956 3.62527C26.4882 3.62527 27.7857 5.30023 27.7857 6.98664V7.46809C28.1228 7.35097 28.4908 7.2864 28.8839 7.2864C30.8461 7.2864 32.1786 8.90066 32.1786 10.6107V23.7615C32.1786 25.8318 31.5455 27.9765 30.7717 29.8404C29.9926 31.717 29.0384 33.3854 28.3263 34.5231C27.4897 35.8599 26.0255 36.5714 24.5241 36.5714H18.8617C17.0515 36.5714 15.398 35.5443 14.5957 33.9214L14.0436 32.8045C13.3268 31.3547 12.4006 30.0184 11.2945 28.8385L7.66073 24.9619L4.09343 22.4645C3.79985 22.259 3.625 21.9232 3.625 21.5647C3.625 19.7509 4.56054 18.4872 5.84844 17.7892C7.07575 17.124 8.58488 16.9811 9.90615 17.1841C10.9833 17.3496 11.7689 17.5892 12.4107 17.912V6.98664C12.4107 5.2704 13.8077 3.61378 15.7175 3.62529" fill="#FFFFFF"/>
</svg>
