<svg width="38" height="38" viewBox="0 0 38 38" fill="none" xmlns="http://www.w3.org/2000/svg">
<mask id="path-1-outside-1_208_26225" maskUnits="userSpaceOnUse" x="6" y="2" width="25" height="34" fill="#FFFFFF">
<rect fill="#FFFFFF" x="6" y="2" width="25" height="34"/>
<path d="M14.5053 18.8828L16.268 20.1827V22.8761C16.268 23.7646 15.0117 24.5418 14.2735 23.9609L12.3208 22.4154C11.971 21.6608 11.7747 20.5946 11.2563 20.0463C11.6819 20.1593 12.4387 20.2053 12.9502 19.8776L14.5053 18.8828ZM17.4759 5.20264L21.8296 15.7323C22.1445 16.4958 22.9705 16.1832 22.7273 15.4707L21.9082 13.083C21.9082 13.083 21.9336 8.69151 21.9448 6.49619C21.9501 5.62863 23.007 5.83693 23.0673 6.38297C23.4507 9.91133 24.2213 16.9676 24.2213 16.9676C24.284 17.5365 24.9525 17.6126 25.0596 16.9654L25.3278 15.3314L27.5653 8.95015C27.8681 8.08538 28.5718 8.66319 28.4443 9.14285L25.2472 21.1196C25.2403 21.1453 25.2352 21.1682 25.2308 21.1938L24.0188 28.6486C24.0118 28.6929 24.0096 28.737 24.0096 28.7833V32.4592C23.3751 33.431 21.962 34.1876 20.4491 34.264C18.8779 34.3443 17.3695 33.7824 16.551 32.3668L15.9006 31.0129C15.8424 30.8924 15.7551 30.7867 15.6457 30.7056L12.0457 28.0613L9.25999 24.2189L8.67937 19.758C9.10716 19.7717 9.65765 20.1005 9.94465 20.8387L10.8753 23.2214C10.9282 23.3561 11.0161 23.476 11.1293 23.5684L13.2579 25.2458C15.1184 26.7194 17.9113 25.1605 17.9113 22.8767V19.7717C17.9091 19.5104 17.7864 19.2653 17.5755 19.1102L15.0163 17.222C14.7407 17.0189 14.3665 17.007 14.0773 17.1966L12.2565 18.3955C11.5417 18.8676 10.4446 18.874 10.0648 18.217L14.1766 15.1998C14.644 14.8596 15.204 14.8228 15.5629 15.0607L20.5395 18.3693C21.2308 18.8272 21.798 18.089 21.175 17.5711L18.6861 15.4957L16.1455 5.62573C15.8722 4.56377 17.1723 4.47117 17.4757 5.20211L17.4759 5.20264ZM16.1016 3.08793C14.8151 3.45577 14.1857 4.76536 14.4913 5.93863L16.5996 14.0124C15.4659 13.1702 14.2389 13.1267 13.2143 13.8716L9.2883 16.7222C8.65218 17.1852 8.41096 17.5343 8.48121 18.2605C7.59023 18.1914 6.8913 18.7279 7.01402 19.6697L7.65934 24.6373C7.67803 24.7731 7.73129 24.9034 7.80994 25.0121L10.792 29.1277C10.843 29.1969 10.903 29.2574 10.9727 29.3084L14.5075 31.909L15.0956 33.1304C15.1048 33.1486 15.1138 33.1672 15.1235 33.1837C16.2917 35.208 18.4943 36.0062 20.5329 35.9013C22.5707 35.8001 24.5677 34.8698 25.5396 33.1837C25.6132 33.0588 25.6506 32.9168 25.6525 32.7738V28.845L26.8447 21.4951L29.928 9.64042C29.9333 9.6262 29.935 9.61504 29.9372 9.60082C30.0691 8.97167 29.9927 8.36316 29.7124 7.89047C29.4347 7.41694 28.9678 7.10658 28.4865 6.99585C27.5191 6.77164 26.4019 7.31042 26.0179 8.405L25.0437 11.1832L24.706 6.27129C24.6087 4.87186 23.5027 3.94854 22.403 3.96275C21.3045 3.97642 20.2286 4.95246 20.2356 6.32955L20.2448 8.22423L19.0281 4.67053C18.5772 3.3542 17.2399 2.76193 16.1016 3.08791L16.1016 3.08793Z"/>
</mask>
<path d="M14.5053 18.8828L16.268 20.1827V22.8761C16.268 23.7646 15.0117 24.5418 14.2735 23.9609L12.3208 22.4154C11.971 21.6608 11.7747 20.5946 11.2563 20.0463C11.6819 20.1593 12.4387 20.2053 12.9502 19.8776L14.5053 18.8828ZM17.4759 5.20264L21.8296 15.7323C22.1445 16.4958 22.9705 16.1832 22.7273 15.4707L21.9082 13.083C21.9082 13.083 21.9336 8.69151 21.9448 6.49619C21.9501 5.62863 23.007 5.83693 23.0673 6.38297C23.4507 9.91133 24.2213 16.9676 24.2213 16.9676C24.284 17.5365 24.9525 17.6126 25.0596 16.9654L25.3278 15.3314L27.5653 8.95015C27.8681 8.08538 28.5718 8.66319 28.4443 9.14285L25.2472 21.1196C25.2403 21.1453 25.2352 21.1682 25.2308 21.1938L24.0188 28.6486C24.0118 28.6929 24.0096 28.737 24.0096 28.7833V32.4592C23.3751 33.431 21.962 34.1876 20.4491 34.264C18.8779 34.3443 17.3695 33.7824 16.551 32.3668L15.9006 31.0129C15.8424 30.8924 15.7551 30.7867 15.6457 30.7056L12.0457 28.0613L9.25999 24.2189L8.67937 19.758C9.10716 19.7717 9.65765 20.1005 9.94465 20.8387L10.8753 23.2214C10.9282 23.3561 11.0161 23.476 11.1293 23.5684L13.2579 25.2458C15.1184 26.7194 17.9113 25.1605 17.9113 22.8767V19.7717C17.9091 19.5104 17.7864 19.2653 17.5755 19.1102L15.0163 17.222C14.7407 17.0189 14.3665 17.007 14.0773 17.1966L12.2565 18.3955C11.5417 18.8676 10.4446 18.874 10.0648 18.217L14.1766 15.1998C14.644 14.8596 15.204 14.8228 15.5629 15.0607L20.5395 18.3693C21.2308 18.8272 21.798 18.089 21.175 17.5711L18.6861 15.4957L16.1455 5.62573C15.8722 4.56377 17.1723 4.47117 17.4757 5.20211L17.4759 5.20264ZM16.1016 3.08793C14.8151 3.45577 14.1857 4.76536 14.4913 5.93863L16.5996 14.0124C15.4659 13.1702 14.2389 13.1267 13.2143 13.8716L9.2883 16.7222C8.65218 17.1852 8.41096 17.5343 8.48121 18.2605C7.59023 18.1914 6.8913 18.7279 7.01402 19.6697L7.65934 24.6373C7.67803 24.7731 7.73129 24.9034 7.80994 25.0121L10.792 29.1277C10.843 29.1969 10.903 29.2574 10.9727 29.3084L14.5075 31.909L15.0956 33.1304C15.1048 33.1486 15.1138 33.1672 15.1235 33.1837C16.2917 35.208 18.4943 36.0062 20.5329 35.9013C22.5707 35.8001 24.5677 34.8698 25.5396 33.1837C25.6132 33.0588 25.6506 32.9168 25.6525 32.7738V28.845L26.8447 21.4951L29.928 9.64042C29.9333 9.6262 29.935 9.61504 29.9372 9.60082C30.0691 8.97167 29.9927 8.36316 29.7124 7.89047C29.4347 7.41694 28.9678 7.10658 28.4865 6.99585C27.5191 6.77164 26.4019 7.31042 26.0179 8.405L25.0437 11.1832L24.706 6.27129C24.6087 4.87186 23.5027 3.94854 22.403 3.96275C21.3045 3.97642 20.2286 4.95246 20.2356 6.32955L20.2448 8.22423L19.0281 4.67053C18.5772 3.3542 17.2399 2.76193 16.1016 3.08791L16.1016 3.08793Z" fill="#FFFFFF"/>
<path d="M14.5053 18.8828L14.5219 18.8604L14.4999 18.8744L14.5053 18.8828ZM16.268 20.1827H16.2849L16.274 20.1746L16.268 20.1827ZM14.2735 23.9609L14.2673 23.9688L14.2673 23.9688L14.2735 23.9609ZM12.3208 22.4154L12.3106 22.4201L12.3146 22.4233L12.3208 22.4154ZM11.2563 20.0463L11.2589 20.0367L11.2249 20.0276L11.249 20.0532L11.2563 20.0463ZM12.9502 19.8776L12.9448 19.8692L12.9448 19.8692L12.9502 19.8776ZM17.4759 5.20264L17.4659 5.20473L17.4666 5.20646L17.4759 5.20264ZM21.8296 15.7323L21.8389 15.7285L21.8389 15.7285L21.8296 15.7323ZM22.7273 15.4707L22.7368 15.4675L22.7368 15.4675L22.7273 15.4707ZM21.9082 13.083L21.8977 13.0829L21.8988 13.0862L21.9082 13.083ZM21.9448 6.49619L21.9348 6.49613L21.9348 6.49614L21.9448 6.49619ZM23.0673 6.38297L23.0772 6.38189L23.0772 6.38188L23.0673 6.38297ZM24.2213 16.9676L24.2113 16.9687L24.2113 16.9687L24.2213 16.9676ZM25.0596 16.9654L25.0694 16.967L25.0694 16.967L25.0596 16.9654ZM25.3278 15.3314L25.3183 15.3281L25.318 15.3298L25.3278 15.3314ZM27.5653 8.95015L27.5747 8.95346L27.5747 8.95346L27.5653 8.95015ZM28.4443 9.14285L28.4539 9.14543L28.4539 9.14542L28.4443 9.14285ZM25.2472 21.1196L25.2569 21.1223L25.2569 21.1222L25.2472 21.1196ZM25.2308 21.1938L25.2209 21.1921L25.2209 21.1922L25.2308 21.1938ZM24.0188 28.6486L24.0089 28.647L24.0089 28.6471L24.0188 28.6486ZM24.0096 32.4592L24.0196 32.4657V32.4592H24.0096ZM20.4491 34.264L20.4486 34.254L20.4486 34.254L20.4491 34.264ZM16.551 32.3668L16.5419 32.3712L16.5423 32.3718L16.551 32.3668ZM15.9006 31.0129L15.9097 31.0086L15.9096 31.0085L15.9006 31.0129ZM15.6457 30.7056L15.6517 30.6975L15.6517 30.6975L15.6457 30.7056ZM12.0457 28.0613L12.0372 28.0674L12.0398 28.0693L12.0457 28.0613ZM9.25999 24.2189L9.2487 24.2204L9.25189 24.2248L9.25999 24.2189ZM8.67937 19.758L8.67968 19.7481L8.66793 19.7477L8.66945 19.7593L8.67937 19.758ZM9.94465 20.8387L9.93533 20.8423L9.93534 20.8424L9.94465 20.8387ZM10.8753 23.2214L10.8659 23.2251L10.8659 23.2251L10.8753 23.2214ZM11.1293 23.5684L11.123 23.5761L11.1231 23.5762L11.1293 23.5684ZM13.2579 25.2458L13.2641 25.238L13.2641 25.2379L13.2579 25.2458ZM17.9113 19.7717H17.9213L17.9213 19.7716L17.9113 19.7717ZM17.5755 19.1102L17.5696 19.1183L17.5696 19.1183L17.5755 19.1102ZM15.0163 17.222L15.0222 17.2139L15.0222 17.2139L15.0163 17.222ZM14.0773 17.1966L14.0718 17.1882L14.0718 17.1882L14.0773 17.1966ZM12.2565 18.3955L12.251 18.3871L12.251 18.3871L12.2565 18.3955ZM10.0648 18.217L10.0104 18.1428L10.0562 18.222L10.0648 18.217ZM14.1766 15.1998L14.1707 15.1917L14.1707 15.1917L14.1766 15.1998ZM15.5629 15.0607L15.5684 15.0523L15.5684 15.0523L15.5629 15.0607ZM20.5395 18.3693L20.5339 18.3776L20.5339 18.3776L20.5395 18.3693ZM21.175 17.5711L21.1686 17.5788L21.1686 17.5788L21.175 17.5711ZM18.6861 15.4957L18.6741 15.4988L18.6797 15.5034L18.6861 15.4957ZM16.1455 5.62573L16.1358 5.62822L16.1358 5.62822L16.1455 5.62573ZM17.4757 5.20211L17.4857 5.20003L17.485 5.19828L17.4757 5.20211ZM16.1016 3.08793L16.1044 3.09778L16.1063 3.09672L16.1016 3.08793ZM14.4913 5.93863L14.4816 5.94115L14.4816 5.94115L14.4913 5.93863ZM16.5996 14.0124L16.5936 14.0204L16.6164 14.0374L16.6093 14.0099L16.5996 14.0124ZM13.2143 13.8716L13.2202 13.8796L13.2202 13.8796L13.2143 13.8716ZM9.2883 16.7222L9.28242 16.7142L9.28241 16.7142L9.2883 16.7222ZM8.48121 18.2605L8.48043 18.2705L8.49231 18.2714L8.49116 18.2596L8.48121 18.2605ZM7.01402 19.6697L7.02394 19.6684L7.02394 19.6684L7.01402 19.6697ZM7.65934 24.6373L7.64943 24.6386L7.64944 24.6387L7.65934 24.6373ZM7.80994 25.0121L7.80184 25.018L7.80184 25.018L7.80994 25.0121ZM10.792 29.1277L10.7839 29.1336L10.784 29.1337L10.792 29.1277ZM10.9727 29.3084L10.9786 29.3004L10.9786 29.3004L10.9727 29.3084ZM14.5075 31.909L14.5177 31.9041L14.5134 31.9009L14.5075 31.909ZM15.0956 33.1304L15.0866 33.1348L15.0867 33.135L15.0956 33.1304ZM15.1235 33.1837L15.1322 33.1787L15.1321 33.1786L15.1235 33.1837ZM20.5329 35.9013L20.5324 35.8913L20.5324 35.8913L20.5329 35.9013ZM25.5396 33.1837L25.531 33.1786L25.5309 33.1787L25.5396 33.1837ZM25.6525 32.7738L25.6625 32.7739V32.7738H25.6525ZM25.6525 28.845L25.6425 28.8433V28.845H25.6525ZM26.8447 21.4951L26.835 21.4926L26.8348 21.4935L26.8447 21.4951ZM29.928 9.64042L29.9186 9.63691L29.9183 9.6379L29.928 9.64042ZM29.9372 9.60082L29.9274 9.59876L29.9273 9.59927L29.9372 9.60082ZM29.7124 7.89047L29.7038 7.89553L29.7038 7.89557L29.7124 7.89047ZM28.4865 6.99585L28.4842 7.0056L28.4842 7.0056L28.4865 6.99585ZM26.0179 8.405L26.0085 8.40169L26.0085 8.40169L26.0179 8.405ZM25.0437 11.1832L25.0338 11.1838L25.0532 11.1865L25.0437 11.1832ZM24.706 6.27129L24.716 6.27061L24.716 6.2706L24.706 6.27129ZM22.403 3.96275L22.4032 3.97275L22.4032 3.97275L22.403 3.96275ZM20.2356 6.32955L20.2456 6.3295L20.2456 6.3295L20.2356 6.32955ZM20.2448 8.22423L20.2354 8.22747L20.2548 8.22418L20.2448 8.22423ZM19.0281 4.67053L19.0376 4.6673L19.0376 4.66729L19.0281 4.67053ZM16.1016 3.08791L16.0988 3.07806L16.0968 3.07912L16.1016 3.08791ZM14.4994 18.8909L16.2621 20.1907L16.274 20.1746L14.5112 18.8748L14.4994 18.8909ZM16.258 20.1827V22.8761H16.278V20.1827H16.258ZM16.258 22.8761C16.258 23.3157 15.9469 23.7293 15.5426 23.9609C15.1384 24.1924 14.6444 24.2401 14.2797 23.9531L14.2673 23.9688C14.6407 24.2626 15.1441 24.2122 15.5526 23.9782C15.961 23.7443 16.278 23.325 16.278 22.8761H16.258ZM14.2797 23.9531L12.327 22.4076L12.3146 22.4233L14.2673 23.9688L14.2797 23.9531ZM12.3298 22.4112C12.1552 22.0344 12.0191 21.5803 11.8612 21.1501C11.7036 20.7206 11.5243 20.3152 11.2636 20.0395L11.249 20.0532C11.5067 20.3257 11.6848 20.7276 11.8424 21.1569C11.9997 21.5855 12.1366 22.0418 12.3117 22.4196L12.3298 22.4112ZM11.2537 20.056C11.4675 20.1127 11.7641 20.1526 12.0715 20.1372C12.3789 20.1218 12.6979 20.0511 12.9556 19.886L12.9448 19.8692C12.691 20.0318 12.3759 20.1019 12.0705 20.1172C11.7653 20.1325 11.4707 20.0929 11.2589 20.0367L11.2537 20.056ZM12.9556 19.886L14.5107 18.8913L14.4999 18.8744L12.9448 19.8692L12.9556 19.886ZM17.4666 5.20646L21.8204 15.7361L21.8389 15.7285L17.4851 5.19882L17.4666 5.20646ZM21.8204 15.7361C21.9792 16.1212 22.269 16.2384 22.4909 16.1645C22.7129 16.0906 22.8597 15.8277 22.7368 15.4675L22.7179 15.4739C22.8381 15.8263 22.6935 16.0759 22.4846 16.1455C22.2755 16.2152 21.995 16.1069 21.8389 15.7285L21.8204 15.7361ZM22.7368 15.4675L21.9177 13.0798L21.8988 13.0862L22.7179 15.474L22.7368 15.4675ZM21.9082 13.083C21.9182 13.0831 21.9182 13.083 21.9182 13.083C21.9183 13.083 21.9183 13.0829 21.9183 13.0829C21.9183 13.0827 21.9183 13.0825 21.9183 13.0823C21.9183 13.0817 21.9183 13.0809 21.9183 13.0799C21.9183 13.0777 21.9183 13.0746 21.9183 13.0704C21.9184 13.062 21.9184 13.0495 21.9185 13.0332C21.9187 13.0005 21.919 12.9523 21.9194 12.8901C21.9201 12.7657 21.9211 12.5856 21.9224 12.3626C21.9249 11.9166 21.9285 11.299 21.9323 10.6129C21.9401 9.24061 21.9492 7.59391 21.9548 6.49624L21.9348 6.49614C21.9292 7.5938 21.9201 9.2405 21.9123 10.6128C21.9085 11.2989 21.9049 11.9165 21.9024 12.3625C21.9011 12.5855 21.9001 12.7656 21.8994 12.89C21.899 12.9521 21.8987 13.0004 21.8985 13.0331C21.8984 13.0494 21.8984 13.0619 21.8983 13.0703C21.8983 13.0745 21.8983 13.0776 21.8983 13.0797C21.8983 13.0808 21.8983 13.0816 21.8983 13.0821C21.8983 13.0824 21.8983 13.0826 21.8983 13.0827C21.8983 13.0828 21.8983 13.0829 21.8983 13.0829C21.8982 13.0829 21.8982 13.0829 21.9082 13.083ZM21.9548 6.49625C21.9561 6.28145 22.0224 6.13468 22.1208 6.04303C22.2192 5.95128 22.3509 5.91362 22.485 5.91947C22.7543 5.93122 23.0279 6.11754 23.0573 6.38407L23.0772 6.38188C23.0464 6.10236 22.7614 5.91151 22.4859 5.89949C22.3476 5.89346 22.2102 5.93226 22.1071 6.0284C22.0039 6.12463 21.9361 6.27716 21.9348 6.49613L21.9548 6.49625ZM23.0573 6.38405C23.2491 8.14823 23.5376 10.7944 23.7781 12.9995C23.8984 14.1021 24.0067 15.0944 24.0849 15.811C24.1241 16.1693 24.1557 16.4588 24.1775 16.6586C24.1884 16.7585 24.1968 16.836 24.2026 16.8886C24.2055 16.9149 24.2076 16.9349 24.2091 16.9483C24.2098 16.9551 24.2104 16.9602 24.2108 16.9636C24.211 16.9653 24.2111 16.9665 24.2112 16.9674C24.2112 16.9678 24.2113 16.9682 24.2113 16.9684C24.2113 16.9685 24.2113 16.9686 24.2113 16.9686C24.2113 16.9687 24.2113 16.9687 24.2213 16.9676C24.2312 16.9665 24.2312 16.9665 24.2312 16.9664C24.2312 16.9664 24.2312 16.9663 24.2312 16.9662C24.2312 16.966 24.2311 16.9657 24.2311 16.9652C24.231 16.9644 24.2308 16.9631 24.2307 16.9614C24.2303 16.958 24.2297 16.9529 24.229 16.9462C24.2275 16.9327 24.2253 16.9127 24.2225 16.8864C24.2167 16.8339 24.2083 16.7563 24.1974 16.6564C24.1755 16.4566 24.1439 16.1672 24.1048 15.8088C24.0266 15.0922 23.9183 14.0999 23.798 12.9973C23.5574 10.7922 23.269 8.14607 23.0772 6.38189L23.0573 6.38405ZM24.2113 16.9687C24.2431 17.257 24.4291 17.423 24.6233 17.4325C24.8181 17.4421 25.0153 17.2941 25.0694 16.967L25.0497 16.9637C24.9967 17.2839 24.8061 17.4215 24.6243 17.4126C24.4418 17.4036 24.2622 17.2471 24.2312 16.9665L24.2113 16.9687ZM25.0694 16.967L25.3377 15.333L25.318 15.3298L25.0497 16.9638L25.0694 16.967ZM25.3373 15.3347L27.5747 8.95346L27.5558 8.94684L25.3184 15.3281L25.3373 15.3347ZM27.5747 8.95346C27.65 8.73854 27.7496 8.61501 27.8532 8.5567C27.9565 8.49858 28.0654 8.5044 28.1618 8.55133C28.3557 8.64574 28.497 8.90549 28.4346 9.14029L28.4539 9.14542C28.519 8.90056 28.3723 8.63156 28.1705 8.53335C28.0691 8.48396 27.9532 8.47749 27.8434 8.53927C27.7339 8.60084 27.632 8.72937 27.5558 8.94685L27.5747 8.95346ZM28.4346 9.14028L25.2376 21.1171L25.2569 21.1222L28.4539 9.14543L28.4346 9.14028ZM25.2376 21.117C25.2305 21.143 25.2254 21.1662 25.2209 21.1921L25.2406 21.1955C25.245 21.1702 25.25 21.1476 25.2569 21.1223L25.2376 21.117ZM25.2209 21.1922L24.0089 28.647L24.0286 28.6502L25.2407 21.1954L25.2209 21.1922ZM24.0089 28.6471C24.0018 28.6921 23.9996 28.7367 23.9996 28.7833H24.0196C24.0196 28.7373 24.0218 28.6938 24.0286 28.6502L24.0089 28.6471ZM23.9996 28.7833V32.4592H24.0196V28.7833H23.9996ZM24.0012 32.4537C23.3688 33.4223 21.959 34.1778 20.4486 34.254L20.4496 34.274C21.965 34.1975 23.3814 33.4397 24.0179 32.4646L24.0012 32.4537ZM20.4486 34.254C18.88 34.3342 17.3757 33.7732 16.5596 32.3618L16.5423 32.3718C17.3632 33.7916 18.8759 34.3545 20.4497 34.274L20.4486 34.254ZM16.56 32.3625L15.9097 31.0086L15.8916 31.0172L16.542 32.3712L16.56 32.3625ZM15.9096 31.0085C15.8506 30.8866 15.7623 30.7796 15.6517 30.6975L15.6398 30.7136C15.7478 30.7938 15.8341 30.8982 15.8916 31.0172L15.9096 31.0085ZM15.6517 30.6975L12.0516 28.0532L12.0398 28.0693L15.6398 30.7136L15.6517 30.6975ZM12.0538 28.0554L9.26808 24.2131L9.25189 24.2248L12.0376 28.0671L12.0538 28.0554ZM9.2699 24.2176L8.68928 19.7568L8.66945 19.7593L9.25007 24.2202L9.2699 24.2176ZM8.67905 19.768C9.10216 19.7816 9.64952 20.1072 9.93533 20.8423L9.95397 20.8351C9.66579 20.0938 9.11217 19.7619 8.67968 19.7481L8.67905 19.768ZM9.93534 20.8424L10.8659 23.2251L10.8846 23.2178L9.95397 20.8351L9.93534 20.8424ZM10.8659 23.2251C10.9196 23.3614 11.0085 23.4827 11.123 23.5761L11.1356 23.5606C11.0237 23.4694 10.9369 23.3509 10.8846 23.2178L10.8659 23.2251ZM11.1231 23.5762L13.2518 25.2536L13.2641 25.2379L11.1355 23.5605L11.1231 23.5762ZM13.2517 25.2536C14.1856 25.9933 15.3533 25.9716 16.2869 25.4791C17.2205 24.9866 17.9213 24.0229 17.9213 22.8767H17.9013C17.9013 24.0143 17.2056 24.9719 16.2776 25.4614C15.3497 25.9509 14.1907 25.9719 13.2641 25.238L13.2517 25.2536ZM17.9213 22.8767V19.7717H17.9013V22.8767H17.9213ZM17.9213 19.7716C17.919 19.5072 17.7949 19.2591 17.5815 19.1022L17.5696 19.1183C17.7778 19.2714 17.8991 19.5136 17.9013 19.7718L17.9213 19.7716ZM17.5815 19.1022L15.0222 17.2139L15.0103 17.23L17.5696 19.1183L17.5815 19.1022ZM15.0222 17.2139C14.7433 17.0084 14.3645 16.9963 14.0718 17.1882L14.0828 17.2049C14.3684 17.0176 14.7381 17.0295 15.0103 17.23L15.0222 17.2139ZM14.0718 17.1882L12.251 18.3871L12.262 18.4038L14.0828 17.2049L14.0718 17.1882ZM12.251 18.3871C11.8954 18.622 11.4446 18.7411 11.0356 18.7197C10.6265 18.6983 10.2611 18.5366 10.0735 18.212L10.0562 18.222C10.2484 18.5544 10.6214 18.718 11.0345 18.7397C11.4478 18.7613 11.9028 18.6411 12.262 18.4038L12.251 18.3871ZM10.0708 18.2251L14.1825 15.2079L14.1707 15.1917L10.0589 18.2089L10.0708 18.2251ZM14.1825 15.2079C14.6475 14.8694 15.2029 14.834 15.5574 15.069L15.5684 15.0523C15.2052 14.8116 14.6406 14.8497 14.1707 15.1917L14.1825 15.2079ZM15.5574 15.069L20.5339 18.3776L20.545 18.3609L15.5684 15.0523L15.5574 15.069ZM20.5339 18.3776C20.8829 18.6087 21.2037 18.5394 21.358 18.3423C21.5124 18.145 21.4961 17.825 21.1814 17.5634L21.1686 17.5788C21.477 17.8351 21.4885 18.1431 21.3422 18.3299C21.1959 18.5169 20.8874 18.5877 20.545 18.3609L20.5339 18.3776ZM21.1814 17.5634L18.6925 15.488L18.6797 15.5034L21.1686 17.5788L21.1814 17.5634ZM18.6957 15.4932L16.1552 5.62323L16.1358 5.62822L18.6764 15.4982L18.6957 15.4932ZM16.1552 5.62323C16.0873 5.35963 16.1175 5.15763 16.2039 5.01389C16.2904 4.87012 16.4341 4.78321 16.5963 4.75139C16.9211 4.68764 17.3169 4.84551 17.4665 5.20595L17.485 5.19828C17.3312 4.82777 16.9252 4.66647 16.5924 4.73177C16.4258 4.76448 16.2767 4.85415 16.1868 5.00358C16.0969 5.15303 16.067 5.36084 16.1358 5.62822L16.1552 5.62323ZM17.466 5.20417L17.4661 5.2047L17.4856 5.20059L17.4855 5.20006L17.466 5.20417ZM16.0988 3.07832C14.8067 3.44777 14.1747 4.76308 14.4816 5.94115L14.501 5.93611C14.1966 4.76764 14.8235 3.46376 16.1043 3.09754L16.0988 3.07832ZM14.4816 5.94115L16.5899 14.0149L16.6093 14.0099L14.501 5.9361L14.4816 5.94115ZM16.6055 14.0044C16.0374 13.5823 15.4453 13.36 14.8665 13.3368C14.2875 13.3137 13.7224 13.4898 13.2084 13.8635L13.2202 13.8796C13.7308 13.5084 14.2915 13.3339 14.8657 13.3568C15.4399 13.3798 16.0281 13.6003 16.5936 14.0204L16.6055 14.0044ZM13.2084 13.8635L9.28242 16.7142L9.29417 16.7303L13.2202 13.8796L13.2084 13.8635ZM9.28241 16.7142C8.96406 16.9458 8.74325 17.1499 8.61112 17.3878C8.4788 17.626 8.436 17.8971 8.47125 18.2615L8.49116 18.2596C8.45616 17.8978 8.49884 17.6312 8.6286 17.3975C8.75855 17.1636 8.97641 16.9616 9.29418 16.7303L9.28241 16.7142ZM8.48198 18.2506C8.03441 18.2158 7.63403 18.3332 7.36079 18.5786C7.08731 18.8242 6.94237 19.1972 7.00411 19.671L7.02394 19.6684C6.96295 19.2004 7.10612 18.8342 7.37416 18.5935C7.64245 18.3525 8.03703 18.2361 8.48043 18.2705L8.48198 18.2506ZM7.00411 19.671L7.64943 24.6386L7.66926 24.636L7.02394 19.6684L7.00411 19.671ZM7.64944 24.6387C7.66835 24.7761 7.72225 24.9079 7.80184 25.018L7.81804 25.0063C7.74034 24.8988 7.68771 24.7701 7.66925 24.6359L7.64944 24.6387ZM7.80184 25.018L10.7839 29.1336L10.8001 29.1219L7.81804 25.0062L7.80184 25.018ZM10.784 29.1337C10.8356 29.2036 10.8962 29.2649 10.9668 29.3165L10.9786 29.3004C10.9097 29.25 10.8505 29.1902 10.8 29.1218L10.784 29.1337ZM10.9668 29.3165L14.5016 31.917L14.5134 31.9009L10.9786 29.3004L10.9668 29.3165ZM14.4985 31.9133L15.0866 33.1348L15.1046 33.1261L14.5165 31.9046L14.4985 31.9133ZM15.0867 33.135C15.0958 33.1528 15.1049 33.172 15.1149 33.1888L15.1321 33.1786C15.1226 33.1625 15.1139 33.1444 15.1046 33.1259L15.0867 33.135ZM15.1149 33.1887C16.2854 35.2171 18.4921 36.0163 20.5334 35.9113L20.5324 35.8913C18.4965 35.9961 16.298 35.1989 15.1322 33.1787L15.1149 33.1887ZM20.5334 35.9113C22.5735 35.81 24.5742 34.8786 25.5483 33.1887L25.5309 33.1787C24.5613 34.861 22.5679 35.7902 20.5324 35.8913L20.5334 35.9113ZM25.5482 33.1888C25.6228 33.0623 25.6606 32.9186 25.6625 32.7739L25.6425 32.7736C25.6406 32.915 25.6037 33.0553 25.531 33.1786L25.5482 33.1888ZM25.6625 32.7738V28.845H25.6425V32.7738H25.6625ZM25.6624 28.8466L26.8546 21.4967L26.8348 21.4935L25.6427 28.8434L25.6624 28.8466ZM26.8544 21.4976L29.9377 9.64294L29.9183 9.6379L26.835 21.4926L26.8544 21.4976ZM29.9374 9.64391C29.9431 9.62862 29.9449 9.61653 29.9471 9.60237L29.9273 9.59927C29.9251 9.61356 29.9235 9.62377 29.9186 9.63693L29.9374 9.64391ZM29.947 9.60287C30.0793 8.97179 30.0028 8.36063 29.721 7.88537L29.7038 7.89557C29.9826 8.3657 30.0589 8.97156 29.9274 9.59877L29.947 9.60287ZM29.7211 7.88541C29.4418 7.40933 28.9725 7.09741 28.4887 6.98611L28.4842 7.0056C28.9631 7.11576 29.4276 7.42455 29.7038 7.89553L29.7211 7.88541ZM28.4887 6.98611C27.5164 6.76077 26.3942 7.30221 26.0085 8.40169L26.0273 8.40831C26.4096 7.31863 27.5217 6.78251 28.4842 7.0056L28.4887 6.98611ZM26.0085 8.40169L25.0343 11.1799L25.0532 11.1865L26.0273 8.40831L26.0085 8.40169ZM25.0537 11.1825L24.716 6.27061L24.696 6.27198L25.0338 11.1838L25.0537 11.1825ZM24.716 6.2706C24.6183 4.86614 23.5081 3.93847 22.4029 3.95275L22.4032 3.97275C23.4973 3.95861 24.5991 4.87758 24.696 6.27199L24.716 6.2706ZM22.4029 3.95275C21.2988 3.96649 20.2186 4.94714 20.2256 6.3296L20.2456 6.3295C20.2387 4.95779 21.3103 3.98635 22.4032 3.97275L22.4029 3.95275ZM20.2256 6.3296L20.2348 8.22428L20.2548 8.22418L20.2456 6.3295L20.2256 6.3296ZM20.2543 8.22099L19.0376 4.6673L19.0186 4.67377L20.2354 8.22747L20.2543 8.22099ZM19.0376 4.66729C18.5848 3.34576 17.2421 2.7509 16.0988 3.0783L16.1043 3.09752C17.2377 2.77296 18.5695 3.36264 19.0186 4.67378L19.0376 4.66729ZM16.0968 3.07912L16.0968 3.07914L16.1063 3.09672L16.1064 3.0967L16.0968 3.07912Z" fill="#FFFFFF" mask="url(#path-1-outside-1_208_26225)"/>
</svg>
