<svg width="38" height="38" viewBox="0 0 38 38" fill="#FFFFFF" xmlns="http://www.w3.org/2000/svg">
<path d="M19.6678 3.0636C20.0064 2.14128 21.042 1.18733 22.3466 1.57418C23.6533 1.96167 24.5039 2.89475 25.0092 4.02599C25.503 5.1315 25.6879 6.46066 25.6988 7.79777C25.7163 9.95049 25.2826 12.318 24.7169 14.25H28.7071C31.4478 14.25 33.4382 16.8563 32.7167 19.5004L30.0776 29.172C29.0364 32.9877 25.1534 35.2871 21.307 34.3656L10.1682 31.6972C8.14009 31.2113 6.5351 29.6636 5.97593 27.6545L4.99932 24.1455C4.39864 21.9872 5.62511 19.8572 7.53626 18.9803C12.5433 16.6827 15.2215 13.3377 17.3195 9.06393C17.9843 7.70961 18.4707 6.36508 19.1313 4.53909C19.2973 4.08026 19.4743 3.59103 19.6678 3.0636ZM21.7131 3.49411C21.6494 3.53497 21.5711 3.62224 21.5258 3.74553C21.3428 4.24407 21.1725 4.71529 21.0101 5.16442C20.3444 7.00567 19.8129 8.47579 19.0961 9.93607C16.8552 14.501 13.8886 18.2429 8.3617 20.7791C7.20628 21.3093 6.60205 22.5226 6.90602 23.6148L7.88263 27.1238C8.24898 28.4401 9.30053 29.4542 10.6293 29.7725L21.768 32.4409C24.5749 33.1133 27.4084 31.4354 28.1682 28.6509L30.8074 18.9794C31.1853 17.5944 30.1427 16.2292 28.7071 16.2292H23.3536C23.0308 16.2292 22.7283 16.0717 22.5431 15.8073C22.3579 15.5429 22.3133 15.2048 22.4236 14.9014C23.1237 12.976 23.7391 10.2027 23.7197 7.81385C23.71 6.61736 23.5411 5.59215 23.2021 4.83316C22.8745 4.09991 22.4134 3.65835 21.7839 3.47168C21.7741 3.46878 21.7706 3.4693 21.7668 3.46995C21.7606 3.47101 21.7421 3.47555 21.7131 3.49411Z" fill="#FFFFFF"/>
</svg>
