<svg width="48" height="48" viewBox="0 0 48 48" fill="#FFFFFF" xmlns="http://www.w3.org/2000/svg">
<path d="M33.9226 11.9727C34.1836 11.1864 33.7578 10.3375 32.9716 10.0764C32.1854 9.81542 31.3364 10.2412 31.0754 11.0274C30.7796 11.9184 30.4674 13.1073 30.2363 14.0524C28.7638 14.1027 27.345 14.0884 26.1024 14.0035C25.2759 13.9469 24.5601 14.5711 24.5036 15.3976C24.447 16.2241 25.0712 16.94 25.8977 16.9965C27.0239 17.0735 28.2781 17.0973 29.5861 17.071C29.2986 18.6023 29.1037 19.9693 28.9857 21.1987C26.5559 22.4835 24.8636 24.2078 23.9086 26.0234C22.6823 28.3547 22.5874 31.1363 24.3191 32.909C25.4627 34.0778 27.1358 34.1897 28.5778 33.8801C29.3889 33.706 30.2289 33.3834 31.0583 32.9317C31.0705 32.963 31.0823 32.994 31.0937 33.0246C31.3834 33.8007 32.2474 34.195 33.0235 33.9053C33.7996 33.6157 34.194 32.7516 33.9043 31.9755C33.7911 31.6722 33.677 31.3928 33.5636 31.1278C35.6103 29.2563 37.393 26.511 38.1342 23.0343C39.4094 23.6585 40.2725 24.7054 40.6901 25.8329C41.1446 27.0601 41.1158 28.4576 40.4958 29.7383C39.8806 31.0089 38.6308 32.2673 36.4654 33.0999C35.6921 33.3973 35.3063 34.2651 35.6036 35.0383C35.901 35.8116 36.7688 36.1974 37.5421 35.9001C40.3152 34.8338 42.2035 33.0955 43.1959 31.0456C44.1835 29.0058 44.232 26.7587 43.5033 24.791C42.6768 22.5591 40.9024 20.7703 38.4947 19.9437C38.4984 19.7968 38.5002 19.6489 38.5002 19.5C38.5002 18.6716 37.8286 18 37.0002 18C36.1896 18 35.5292 18.643 35.5011 19.4468C34.4513 19.4385 33.331 19.5884 32.1567 19.9224C32.2832 19.0113 32.4521 18.0149 32.6709 16.9224C35.0394 16.7436 37.3978 16.4172 39.3431 15.9602C40.1496 15.7708 40.6498 14.9634 40.4603 14.1569C40.2709 13.3505 39.4635 12.8503 38.657 13.0397C37.121 13.4006 35.2775 13.6755 33.3809 13.852C33.553 13.1924 33.7438 12.5111 33.9226 11.9727ZM26.5637 27.42C27.0163 26.5594 27.7634 25.6472 28.8555 24.8205C28.8898 25.8026 28.9867 26.671 29.1292 27.4547C29.3179 28.492 29.6011 29.4023 29.9015 30.1993C29.2911 30.5418 28.6385 30.7988 27.9482 30.9469C26.9785 31.1551 26.5736 30.9236 26.4635 30.811C25.9858 30.322 25.6765 29.1067 26.5637 27.42ZM35.1919 22.4449C34.7738 24.3783 33.791 26.4891 32.3647 28.1412C32.259 27.7739 32.1634 27.3722 32.0808 26.9179C31.9027 25.9386 31.8012 24.7341 31.8572 23.1857C32.0762 23.1016 32.3022 23.0209 32.5351 22.9439C33.4982 22.6261 34.3848 22.4702 35.1919 22.4449ZM15.9217 13.0597C11.4423 11.7565 7.91546 13.362 6.77023 13.9939C6.0449 14.3942 5.78137 15.3066 6.18161 16.0319C6.58185 16.7573 7.4943 17.0208 8.21963 16.6206C9.02939 16.1737 11.6921 14.9542 15.082 15.9398C16.6281 16.3938 17.2781 17.2181 17.6108 18.0519C17.8757 18.7158 17.959 19.4337 17.9852 20.1362C17.4467 19.9858 16.824 19.8362 16.141 19.7148C13.8759 19.3123 10.7758 19.1895 7.89589 20.569C4.72338 22.0887 3.63496 25.2016 4.09181 27.963C4.54074 30.6765 6.52465 33.2962 9.69218 33.8662C12.5512 34.3808 15.3029 33.3545 17.2069 32.3435C17.4842 32.1962 17.7482 32.0468 17.997 31.8988V32.5C17.997 33.3284 18.6686 34 19.497 34C20.3254 34 20.997 33.3284 20.997 32.5L20.997 20.9206C20.9976 20.0124 20.9986 18.4474 20.3971 16.9401C19.7355 15.2818 18.3887 13.7835 15.9249 13.0606L15.9217 13.0597ZM15.616 22.6685C16.5828 22.8403 17.4113 23.0802 17.997 23.2771V28.2893C17.9324 28.3382 17.8622 28.3906 17.7867 28.4458C17.3052 28.7982 16.6182 29.2593 15.7999 29.6938C14.1182 30.5868 12.1004 31.2514 10.2235 30.9137C8.53477 30.6098 7.33428 29.1821 7.05158 27.4733C6.7768 25.8125 7.40954 24.1284 9.19188 23.2747C11.2668 22.2808 13.6433 22.3179 15.616 22.6685Z" fill="#FFFFFF"/>
</svg>
